<?xml version="1.0" encoding="utf-8"?>
<!-- Generator: Adobe Illustrator 27.2.0, SVG Export Plug-In . SVG Version: 6.00 Build 0)  -->
<svg version="1.1" xmlns="http://www.w3.org/2000/svg" xmlns:xlink="http://www.w3.org/1999/xlink" x="0px" y="0px"
	 viewBox="0 0 64 64" style="enable-background:new 0 0 64 64;" xml:space="preserve">
<style type="text/css">
	.st0{fill:#FFFFFF;}
	.st1{fill:#616161;}
	.st2{fill:#616161;stroke:#000000;stroke-width:0.2372;stroke-miterlimit:10;}
</style>
<g id="Layer_1">
	<g>
		<path d="M35.9,36.4c0-1.8-1.2-3.5-4.7-3.5h-6.8c-2.8,0-5.2-0.2-6.9-0.9v-0.4c-3.3-1-4.6-2.9-4.6-5.3c0-3.2,2.4-6,6.4-9l1.7,1
			c-1,1.2-1.4,2.2-1.4,3.7c0,1.4,1,2.3,3.7,2.3h7.5c9.8,0,13.3,3.6,13.3,9c0,6.3-6.5,11.5-18.9,11.5c-10.7,0-13.8-3.4-13.8-7.2
			c0-3,2.3-5.4,7.2-7l0.9,0.5c-1.4,1.9-1.9,2.9-1.9,4.8c0,3.7,2.7,5.2,8.6,5.2C32.6,41.1,35.9,39.1,35.9,36.4z M26.2,0.1
			c9.2,0,13.5,4.1,13.5,9.9c0,5.5-4.3,9.8-13.5,9.8c-9.2,0-13.5-4.2-13.5-9.8C12.7,4.4,17,0.1,26.2,0.1z M21.9,10c0,4.4,1.3,7,4.3,7
			c3,0,4.5-2.7,4.5-7.1c0-4.3-1.5-6.9-4.4-6.9C23.4,3,21.9,5.7,21.9,10z M43.7,0l1,0.6v4.7h-9.2v-2L43.7,0z"/>
	</g>
</g>
<g id="lock-top">
	<g>
		<path class="st0" d="M24.9,63.7c0.4,0.4,0.8,0.2,1.2,0.2c1.9,0,3.8,0,5.7,0c1.9,0,3.8,0,5.7,0c1.9,0,3.8,0,5.7,0c1.7,0,3.3,0,5,0
			c0.6,0,0.9-0.3,0.8-0.8c0-1,0-2,0-2.9c0-1.9,0-3.8,0-5.7c0-1.5,0-3,0-4.6c0-0.5,0-1,0-1.5c0-0.4-0.2-0.6-0.6-0.6
			c-0.4,0-0.8,0-1.2,0c-1.9,0-3.8,0-5.7,0c-1.9,0-3.8,0-5.7,0c-1.9,0-3.7,0-5.6,0c-1.5,0-2.9,0-4.4,0c-0.8,0-1,0.1-1,1
			c0,2.6,0.1,5.1,0.1,7.7c0,2.2,0,4.3,0,6.5C24.8,63.3,24.9,63.5,24.9,63.7z"/>
		<path class="st1" d="M24.9,63.7c0-0.2-0.1-0.4-0.1-0.6c0-2.2,0-4.3,0-6.5c0-2.6-0.1-5.1-0.1-7.7c0-0.8,0.2-1,1-1
			c1.5,0,2.9,0,4.4,0c1.9,0,3.7,0,5.6,0c1.9,0,3.8,0,5.7,0c1.9,0,3.8,0,5.7,0c0.4,0,0.8,0,1.2,0c0.4,0,0.6,0.2,0.6,0.6
			c0,0.5,0,1,0,1.5c0,1.5,0,3,0,4.6c0,1.9,0,3.8,0,5.7c0,1,0,2,0,2.9c0,0.5-0.3,0.8-0.8,0.8c-1.7,0-3.3,0-5,0c-1.9,0-3.8,0-5.7,0
			c-1.9,0-3.8,0-5.7,0c-1.9,0-3.8,0-5.7,0C25.7,64,25.3,64.1,24.9,63.7z M37.1,55.9c1.4-0.6,1.9-1.4,1.6-2.6c-0.2-0.8-1-1.5-2-1.5
			c-0.9,0-1.9,0.7-2.1,1.5c-0.3,1,0.2,2,1.4,2.5c-0.3,1.7-0.6,3.4-0.9,5.1c0.4,0,0.8-0.1,1.1-0.1c0.6,0,1.1,0,1.7,0
			c0.2,0,0.4,0,0.3-0.3c-0.2-0.7-0.4-1.5-0.6-2.2C37.5,57.6,37.3,56.7,37.1,55.9z"/>
		<path class="st0" d="M37.1,55.9c0.2,0.8,0.4,1.7,0.6,2.5c0.2,0.8,0.4,1.5,0.6,2.2c0.1,0.3-0.1,0.3-0.3,0.3c-0.6,0-1.1,0-1.7,0
			c-0.4,0-0.7,0-1.1,0.1c0.3-1.7,0.6-3.4,0.9-5.1c-1.2-0.6-1.7-1.5-1.4-2.5c0.2-0.8,1.2-1.6,2.1-1.5c1,0,1.8,0.8,2,1.5
			C39,54.5,38.5,55.3,37.1,55.9z"/>
	</g>
	<g>
		<path class="st2" d="M36.7,34.7c3.6,0,6.4,1.2,7.9,3.1c2,2.6,1.5,7.2,1.4,9.9c0,0,0-0.1,0,0.3c-1.2,0-2.4,0-3.6,0c0-0.9,0-2,0-2.8
			c0-1.8,0.1-1.7,0-2.7c0-1.9-1.9-4.6-5.7-4.7c-3.5,0.1-5.6,2.8-5.7,4.7c-0.1,0.9-0.1,1.8-0.1,2.7c0,0.9,0,1.8,0,2.8
			c-1.2,0-2.4,0-3.7,0c0.1-3.5-0.6-7.1,2.1-10.1C31,36,33.9,34.7,36.7,34.7"/>
	</g>
</g>
</svg>
