<?xml version="1.0" encoding="utf-8"?>
<!-- Generator: Adobe Illustrator 27.2.0, SVG Export Plug-In . SVG Version: 6.00 Build 0)  -->
<svg version="1.1" xmlns="http://www.w3.org/2000/svg" xmlns:xlink="http://www.w3.org/1999/xlink" x="0px" y="0px"
	 viewBox="0 0 3028.7 827" style="enable-background:new 0 0 3028.7 827;" xml:space="preserve">
<style type="text/css">
	.st0{fill: currentColor;}
	.st1{fill:#DE4C36;}
	.st2{fill:#FFFFFF;stroke:#000000;stroke-width:0.2253;stroke-miterlimit:10;}
	.st3{fill:url(#SVGID_1_);stroke:#000000;stroke-width:3;stroke-miterlimit:10;}
	.st4{fill:#aaaaaa;}
	.st5{fill:none;}
	.st6{font-family:'Raleway-Bold';}
	.st7{font-size:470px;}
	.st8{color: #000000;}
</style>
<g id="Layer_1">
	<path class="st0" d="M908.4,228.4c-28.2,0-49.3,13.2-49.3,45c0,24,13.9,40.6,47.7,40.6c28.7,0,48.2-16.1,48.2-41.6
		C955.1,243.5,937.6,228.4,908.4,228.4L908.4,228.4z M851.9,453.1c-6.7,7.8-13.3,16.1-13.3,25.9c0,19.6,26.2,25.5,62.1,25.5
		c29.8,0,70.3-2,70.3-28.4c0-15.7-19.5-16.7-44.2-18.1L851.9,453.1L851.9,453.1z M1003.8,229.8c9.2,11.3,19,26.9,19,49.4
		c0,54.3-44.6,86.1-109.3,86.1c-16.4,0-31.3-2-40.5-4.4L856,387l50.3,2.9c88.8,5.4,141.1,7.9,141.1,72.9
		c0,56.3-51.8,88.1-141.1,88.1c-92.9,0-128.3-22.5-128.3-61.2c0-22,10.3-33.8,28.2-49.9c-16.9-6.8-22.6-19.1-22.6-32.3
		c0-10.8,5.6-20.6,14.9-29.9c9.2-9.3,19.5-18.6,31.8-29.4c-25.1-11.8-44.1-37.2-44.1-73.4c0-56.3,39-94.9,117.5-94.9
		c22.1,0,35.4,1.9,47.2,4.9h100.1v41.6L1003.8,229.8L1003.8,229.8z M1141.3,140.9c-29.3,0-46.2-16.2-46.2-44.1
		c0-27.9,16.9-43.1,46.2-43.1c29.8,0,46.7,15.2,46.7,43.1C1188,124.7,1171.1,140.9,1141.3,140.9z M1075.1,435.1v-38.7l26.2-3.4
		c7.2-1,8.2-2.4,8.2-9.8V239.3c0-5.4-1.5-8.8-6.7-10.3l-27.7-9.3l5.6-39.6H1187v203.1c0,7.8,0.5,8.8,8.2,9.8l26.2,3.4v38.6H1075.1z
		 M1424.3,416.1c-22.1,10.3-54.4,19.6-83.7,19.6c-61.1,0-84.1-23.5-84.1-78.8V228.6c0-2.9,0-4.9-4.1-4.9h-35.9v-43.6
		c45.2-4.9,63.1-26.4,68.8-79.8h48.8v69.5c0,3.4,0,4.9,4.1,4.9h72.3v48.9H1334v117c0,28.9,7.2,40.1,34.9,40.1
		c14.4,0,29.3-3.4,41.6-7.8L1424.3,416.1"/>
	<path class="st1" d="M664,287.6L429.3,63.8c-13.5-12.9-35.4-12.9-48.9,0c0,0,0,0,0,0l-48.7,46.5l61.8,59
		c14.8-4.8,31.2-1.2,42.3,9.4c11.1,10.6,14.9,26.4,9.8,40.6l59.6,56.8c14.4-4.7,31-1.7,42.5,9.3c16.1,15.3,16.1,40.2,0,55.5
		c0,0,0,0,0,0c-16.1,15.3-42.1,15.4-58.2,0c-11.8-11.2-15.3-28.1-9-42.8l-55.5-53l0,139.4c4,1.9,7.7,4.4,10.9,7.4
		c16.1,15.3,16.1,40.2,0,55.6c0,0,0,0,0,0c-16.1,15.3-42.2,15.3-58.2,0c-16.1-15.3-16.1-40.2,0-55.6c3.9-3.7,8.4-6.6,13.5-8.6V242.8
		c-5-2-9.6-4.9-13.5-8.6c-12.2-11.6-15.1-28.7-8.9-42.9l-60.9-58.1L146.9,286.6c-13.5,12.9-13.5,33.8,0,46.7c0,0,0,0,0,0
		l234.6,223.8c13.5,12.9,35.4,12.9,48.9,0L664,334.3C677.5,321.4,677.5,300.5,664,287.6"/>
</g>
<g id="lock-bottom">
</g>
<g id="lock-top">
	<g>
		<path class="st2" d="M1055.8,569.7c16,0,30.9,0,45.6,0c0.1-1.3,0.4-2.5,0.4-3.7"/>
		<path class="st2" d="M864.9,569.6c15.4,0,30.6,0,46.2,0c0-11.8-0.1-23.3,0-34.9"/>
		
			<radialGradient id="SVGID_1_" cx="1066.0557" cy="451.1438" r="144.6099" fx="1068.0728" fy="594.849" gradientTransform="matrix(0.9228 0 0 0.8803 0 98.995)" gradientUnits="userSpaceOnUse">
			<stop  offset="0.5259" style="stop-color:#FFFFFF"/>
			<stop  offset="0.7903" style="stop-color:#A1A1A1"/>
		</radialGradient>
		<path class="st3" d="M984.2,412c45.3-0.3,80.9,15.4,99.5,39.5c25.1,32.4,18.6,90.9,18,125c0,0,0-1.1,0,3.3
			c-14.6,0-29.9,0.4-45.9,0.4c0-11-0.2-24.7,0-35.7c0.6-22.7,0.7-21.1,0-34.1c0-23.8-24.3-58.7-71.6-59.1
			c-44.6,0.8-70.5,35.8-72.2,59.4c-0.8,11.5-0.7,23-0.8,34.5c-0.1,11.6,0,23.1,0,34.9c-15.7,0-30.8,0-46.2,0
			c1.3-44.2-8.1-90.1,25.7-128.4C911.6,427.9,948.4,412,984.2,412"/>
	</g>
	<g>
		<g>
			<path d="M831,773.8c0-64.8,0-129.6,0-194.6c100.4,0,200.7,0,301.1,0c3.4,2.6,4.5,5.9,4.5,10.3c-0.1,60.1-0.1,120.3-0.1,180.4
				c0,8.4-2.6,10.9-11,10.9c-94,0-188-0.1-282,0.1C837.5,781,833.4,779.3,831,773.8z M987.3,680.2c3.5-1.5,7-2.4,9.8-4.3
				c9.1-6.1,13.1-14.9,11.1-25.7c-1.9-10.7-8.5-17.5-19.3-20.3c-13.3-3.4-26.7,3-31.6,15.5c-4.8,12.4,0.5,26,12.9,32.1
				c2.6,1.3,3.3,2.6,2.8,5.3c-2.3,12.5-4.4,25-6.6,37.5c-1.3,7.7-2.6,15.4-3.9,23.1c13.2,0,26,0,39.6,0
				C997.1,721.8,992.2,700.9,987.3,680.2z"/>
			<path class="st4" d="M831,773.8c2.4,5.4,6.5,7.1,12.5,7.1c94-0.2,188-0.1,282-0.1c8.4,0,11-2.6,11-10.9c0-60.1,0-120.3,0.1-180.4
				c0-4.3-1.1-7.6-4.5-10.3c1.8,0,3.5,0,5.3,0c0,67.5,0,135,0,202.5c-102.1,0-204.3,0-306.4,0C831,779.1,831,776.5,831,773.8z"/>
			<path class="st4" d="M987.3,680.2c4.9,20.7,9.8,41.6,14.9,63.2c-13.6,0-26.3,0-39.6,0c1.3-7.7,2.6-15.4,3.9-23.1
				c2.2-12.5,4.3-25,6.6-37.5c0.5-2.7-0.2-4.1-2.8-5.3c-12.3-6.1-17.7-19.7-12.9-32.1c4.9-12.5,18.3-19,31.6-15.5
				c10.8,2.8,17.3,9.5,19.3,20.3c1.9,10.8-2.1,19.6-11.1,25.7C994.3,677.7,990.8,678.7,987.3,680.2z"/>
		</g>
	</g>
	<polygon class="st0" points="913.5,550.8 861.9,548.8 866.8,501.9 913.1,505.1 	"/>
	<rect x="1534.2" y="83.1" class="st5" width="1444.9" height="599.8"/>
	<text transform="matrix(1.0483 0 0 1 1534.1924 426.2007)" fill="currentColor" class="st6 st7">crypt</text>
	<rect x="1402.1" y="268" width="111.6" height="48.5"/>
</g>
</svg>
