<?xml version="1.0" encoding="UTF-8" standalone="no"?>
<!-- Created with Inkscape (http://www.inkscape.org/) -->

<svg
   width="752mm"
   height="297mm"
   viewBox="0 0 752 297"
   version="1.1"
   id="svg5"
   xml:space="preserve"
   inkscape:version="1.2.1 (9c6d41e4, 2022-07-14)"
   sodipodi:docname="git-crypto-logo-inkscape.svg"
   xmlns:inkscape="http://www.inkscape.org/namespaces/inkscape"
   xmlns:sodipodi="http://sodipodi.sourceforge.net/DTD/sodipodi-0.dtd"
   xmlns="http://www.w3.org/2000/svg"
   xmlns:svg="http://www.w3.org/2000/svg"><sodipodi:namedview
     id="namedview7"
     pagecolor="#ffffff"
     bordercolor="#000000"
     borderopacity="0.25"
     inkscape:showpageshadow="2"
     inkscape:pageopacity="0.0"
     inkscape:pagecheckerboard="true"
     inkscape:deskcolor="#d1d1d1"
     inkscape:document-units="mm"
     showgrid="false"
     inkscape:zoom="0.33054282"
     inkscape:cx="1530.8153"
     inkscape:cy="559.68544"
     inkscape:window-width="1309"
     inkscape:window-height="456"
     inkscape:window-x="270"
     inkscape:window-y="455"
     inkscape:window-maximized="0"
     inkscape:current-layer="g200" /><defs
     id="defs2" /><g
     inkscape:label="Layer 1"
     inkscape:groupmode="layer"
     id="layer1"><g
       id="g200"
       transform="matrix(0.26458333,0,0,0.26458333,-18.656878,41.7918)"><g
         id="Layer_1">
	<path
   class="st0"
   d="m 908.4,228.4 c -28.2,0 -49.3,13.2 -49.3,45 0,24 13.9,40.6 47.7,40.6 28.7,0 48.2,-16.1 48.2,-41.6 0.1,-28.9 -17.4,-44 -46.6,-44 z m -56.5,224.7 c -6.7,7.8 -13.3,16.1 -13.3,25.9 0,19.6 26.2,25.5 62.1,25.5 29.8,0 70.3,-2 70.3,-28.4 0,-15.7 -19.5,-16.7 -44.2,-18.1 z m 151.9,-223.3 c 9.2,11.3 19,26.9 19,49.4 0,54.3 -44.6,86.1 -109.3,86.1 -16.4,0 -31.3,-2 -40.5,-4.4 l -17,26.1 50.3,2.9 c 88.8,5.4 141.1,7.9 141.1,72.9 0,56.3 -51.8,88.1 -141.1,88.1 -92.9,0 -128.3,-22.5 -128.3,-61.2 0,-22 10.3,-33.8 28.2,-49.9 -16.9,-6.8 -22.6,-19.1 -22.6,-32.3 0,-10.8 5.6,-20.6 14.9,-29.9 9.2,-9.3 19.5,-18.6 31.8,-29.4 -25.1,-11.8 -44.1,-37.2 -44.1,-73.4 0,-56.3 39,-94.9 117.5,-94.9 22.1,0 35.4,1.9 47.2,4.9 H 1051 v 41.6 z m 137.5,-88.9 c -29.3,0 -46.2,-16.2 -46.2,-44.1 0,-27.9 16.9,-43.1 46.2,-43.1 29.8,0 46.7,15.2 46.7,43.1 0,27.9 -16.9,44.1 -46.7,44.1 z m -66.2,294.2 v -38.7 l 26.2,-3.4 c 7.2,-1 8.2,-2.4 8.2,-9.8 V 239.3 c 0,-5.4 -1.5,-8.8 -6.7,-10.3 l -27.7,-9.3 5.6,-39.6 H 1187 v 203.1 c 0,7.8 0.5,8.8 8.2,9.8 l 26.2,3.4 V 435 h -146.3 z m 349.2,-19 c -22.1,10.3 -54.4,19.6 -83.7,19.6 -61.1,0 -84.1,-23.5 -84.1,-78.8 V 228.6 c 0,-2.9 0,-4.9 -4.1,-4.9 h -35.9 v -43.6 c 45.2,-4.9 63.1,-26.4 68.8,-79.8 h 48.8 v 69.5 c 0,3.4 0,4.9 4.1,4.9 h 72.3 v 48.9 H 1334 v 117 c 0,28.9 7.2,40.1 34.9,40.1 14.4,0 29.3,-3.4 41.6,-7.8 l 13.8,43.2"
   id="path134" />
	<path
   class="st1"
   d="M 664,287.6 429.3,63.8 c -13.5,-12.9 -35.4,-12.9 -48.9,0 0,0 0,0 0,0 l -48.7,46.5 61.8,59 c 14.8,-4.8 31.2,-1.2 42.3,9.4 11.1,10.6 14.9,26.4 9.8,40.6 l 59.6,56.8 c 14.4,-4.7 31,-1.7 42.5,9.3 16.1,15.3 16.1,40.2 0,55.5 0,0 0,0 0,0 -16.1,15.3 -42.1,15.4 -58.2,0 -11.8,-11.2 -15.3,-28.1 -9,-42.8 l -55.5,-53 v 139.4 c 4,1.9 7.7,4.4 10.9,7.4 16.1,15.3 16.1,40.2 0,55.6 0,0 0,0 0,0 -16.1,15.3 -42.2,15.3 -58.2,0 -16.1,-15.3 -16.1,-40.2 0,-55.6 3.9,-3.7 8.4,-6.6 13.5,-8.6 V 242.8 c -5,-2 -9.6,-4.9 -13.5,-8.6 -12.2,-11.6 -15.1,-28.7 -8.9,-42.9 l -60.9,-58.1 -161,153.4 c -13.5,12.9 -13.5,33.8 0,46.7 0,0 0,0 0,0 l 234.6,223.8 c 13.5,12.9 35.4,12.9 48.9,0 L 664,334.3 c 13.5,-12.9 13.5,-33.8 0,-46.7"
   id="path136" />
</g><g
         id="lock-bottom">
</g><g
         id="lock-top">
	<g
   id="g151">
		<path
   class="st2"
   d="m 1055.8,569.7 c 16,0 30.9,0 45.6,0 0.1,-1.3 0.4,-2.5 0.4,-3.7"
   id="path140" />
		<path
   class="st2"
   d="m 864.9,569.6 c 15.4,0 30.6,0 46.2,0 0,-11.8 -0.1,-23.3 0,-34.9"
   id="path142" />
		
			<radialGradient
   id="SVGID_1_"
   cx="1066.0557"
   cy="451.1438"
   r="144.60989"
   fx="1068.0728"
   fy="594.849"
   gradientTransform="matrix(0.9228,0,0,0.8803,0,98.995)"
   gradientUnits="userSpaceOnUse">
			<stop
   offset="0.5259"
   style="stop-color:#FFFFFF"
   id="stop144" />
			<stop
   offset="0.7903"
   style="stop-color:#A1A1A1"
   id="stop146" />
		</radialGradient>
		<path
   class="st3"
   d="m 984.2,412 c 45.3,-0.3 80.9,15.4 99.5,39.5 25.1,32.4 18.6,90.9 18,125 0,0 0,-1.1 0,3.3 -14.6,0 -29.9,0.4 -45.9,0.4 0,-11 -0.2,-24.7 0,-35.7 0.6,-22.7 0.7,-21.1 0,-34.1 0,-23.8 -24.3,-58.7 -71.6,-59.1 -44.6,0.8 -70.5,35.8 -72.2,59.4 -0.8,11.5 -0.7,23 -0.8,34.5 -0.1,11.6 0,23.1 0,34.9 -15.7,0 -30.8,0 -46.2,0 1.3,-44.2 -8.1,-90.1 25.7,-128.4 20.9,-23.8 57.7,-39.7 93.5,-39.7"
   id="path149"
   style="fill:url(#SVGID_1_)" />
	</g>
	<g
   id="g161">
		<g
   id="g159">
			<path
   d="m 831,773.8 c 0,-64.8 0,-129.6 0,-194.6 100.4,0 200.7,0 301.1,0 3.4,2.6 4.5,5.9 4.5,10.3 -0.1,60.1 -0.1,120.3 -0.1,180.4 0,8.4 -2.6,10.9 -11,10.9 -94,0 -188,-0.1 -282,0.1 -6,0.1 -10.1,-1.6 -12.5,-7.1 z m 156.3,-93.6 c 3.5,-1.5 7,-2.4 9.8,-4.3 9.1,-6.1 13.1,-14.9 11.1,-25.7 -1.9,-10.7 -8.5,-17.5 -19.3,-20.3 -13.3,-3.4 -26.7,3 -31.6,15.5 -4.8,12.4 0.5,26 12.9,32.1 2.6,1.3 3.3,2.6 2.8,5.3 -2.3,12.5 -4.4,25 -6.6,37.5 -1.3,7.7 -2.6,15.4 -3.9,23.1 13.2,0 26,0 39.6,0 -5,-21.6 -9.9,-42.5 -14.8,-63.2 z"
   id="path153" />
			<path
   class="st4"
   d="m 831,773.8 c 2.4,5.4 6.5,7.1 12.5,7.1 94,-0.2 188,-0.1 282,-0.1 8.4,0 11,-2.6 11,-10.9 0,-60.1 0,-120.3 0.1,-180.4 0,-4.3 -1.1,-7.6 -4.5,-10.3 1.8,0 3.5,0 5.3,0 0,67.5 0,135 0,202.5 -102.1,0 -204.3,0 -306.4,0 0,-2.6 0,-5.2 0,-7.9 z"
   id="path155" />
			<path
   class="st4"
   d="m 987.3,680.2 c 4.9,20.7 9.8,41.6 14.9,63.2 -13.6,0 -26.3,0 -39.6,0 1.3,-7.7 2.6,-15.4 3.9,-23.1 2.2,-12.5 4.3,-25 6.6,-37.5 0.5,-2.7 -0.2,-4.1 -2.8,-5.3 -12.3,-6.1 -17.7,-19.7 -12.9,-32.1 4.9,-12.5 18.3,-19 31.6,-15.5 10.8,2.8 17.3,9.5 19.3,20.3 1.9,10.8 -2.1,19.6 -11.1,25.7 -2.9,1.8 -6.4,2.8 -9.9,4.3 z"
   id="path157" />
		</g>
	</g>
	<polygon
   class="st0"
   points="866.8,501.9 913.1,505.1 913.5,550.8 861.9,548.8 "
   id="polygon163" />
	<rect
   x="1534.2"
   y="83.099998"
   class="st5"
   width="1444.9"
   height="599.79999"
   id="rect165" />
	<text
   transform="matrix(1.0483,0,0,1,1534.1924,426.2007)"
   class="st6 st7"
   id="text167">crypt</text>
	<rect
   x="1402.1"
   y="268"
   width="111.6"
   height="48.5"
   id="rect169" />
</g></g></g><style
     type="text/css"
     id="style132">
	.st0{fill:#2F2707;}
	.st1{fill:#DE4C36;}
	.st2{fill:#FFFFFF;stroke:#000000;stroke-width:0.2253;stroke-miterlimit:10;}
	.st3{fill:url(#SVGID_1_);stroke:#000000;stroke-width:3;stroke-miterlimit:10;}
	.st4{fill:#FFFFFF;}
	.st5{fill:none;}
	.st6{font-family:'Raleway-Bold';}
	.st7{font-size:470px;}
</style></svg>
