<?xml version="1.0" encoding="utf-8"?>
<!-- Generator: Adobe Illustrator 27.2.0, SVG Export Plug-In . SVG Version: 6.00 Build 0)  -->
<svg version="1.1" id="Layer_1" xmlns="http://www.w3.org/2000/svg" xmlns:xlink="http://www.w3.org/1999/xlink" x="0px" y="0px"
	 viewBox="0 0 3028.7 827" style="enable-background:new 0 0 3028.7 827;" xml:space="preserve">
<style type="text/css">
	.st0{display:none;fill:#2F2707;}
	.st1{fill:#DE4C36;}
	.st2{fill:#FFFFFF;}
	.st3{display:none;}
	.st4{fill:#5C5C5C;stroke:#FFFFFF;stroke-width:3;stroke-miterlimit:10;}
	.st5{fill:url(#SVGID_1_);stroke:#E0E0E0;stroke-width:3;stroke-miterlimit:10;}
</style>
<g id="Layer_1_00000013899345152100160810000005442585734320418216_">
	<path class="st0" d="M908.4,228.4c-28.2,0-49.3,13.2-49.3,45c0,24,13.9,40.6,47.7,40.6c28.7,0,48.2-16.1,48.2-41.6
		C955.1,243.5,937.6,228.4,908.4,228.4L908.4,228.4z M851.9,453.1c-6.7,7.8-13.3,16.1-13.3,25.9c0,19.6,26.2,25.5,62.1,25.5
		c29.8,0,70.3-2,70.3-28.4c0-15.7-19.5-16.7-44.2-18.1L851.9,453.1L851.9,453.1z M1003.8,229.8c9.2,11.3,19,26.9,19,49.4
		c0,54.3-44.6,86.1-109.3,86.1c-16.4,0-31.3-2-40.5-4.4L856,387l50.3,2.9c88.8,5.4,141.1,7.9,141.1,72.9
		c0,56.3-51.8,88.1-141.1,88.1c-92.9,0-128.3-22.5-128.3-61.2c0-22,10.3-33.8,28.2-49.9c-16.9-6.8-22.6-19.1-22.6-32.3
		c0-10.8,5.6-20.6,14.9-29.9c9.2-9.3,19.5-18.6,31.8-29.4c-25.1-11.8-44.1-37.2-44.1-73.4c0-56.3,39-94.9,117.5-94.9
		c22.1,0,35.4,1.9,47.2,4.9H1051v41.6L1003.8,229.8L1003.8,229.8z M1141.3,140.9c-29.3,0-46.2-16.2-46.2-44.1s16.9-43.1,46.2-43.1
		c29.8,0,46.7,15.2,46.7,43.1S1171.1,140.9,1141.3,140.9z M1075.1,435.1v-38.7l26.2-3.4c7.2-1,8.2-2.4,8.2-9.8V239.3
		c0-5.4-1.5-8.8-6.7-10.3l-27.7-9.3l5.6-39.6H1187v203.1c0,7.8,0.5,8.8,8.2,9.8l26.2,3.4V435h-146.3V435.1z M1424.3,416.1
		c-22.1,10.3-54.4,19.6-83.7,19.6c-61.1,0-84.1-23.5-84.1-78.8V228.6c0-2.9,0-4.9-4.1-4.9h-35.9v-43.6c45.2-4.9,63.1-26.4,68.8-79.8
		h48.8v69.5c0,3.4,0,4.9,4.1,4.9h72.3v48.9H1334v117c0,28.9,7.2,40.1,34.9,40.1c14.4,0,29.3-3.4,41.6-7.8L1424.3,416.1"/>
	<path class="st1" d="M664,380.6L429.3,156.8c-13.5-12.9-35.4-12.9-48.9,0l0,0l-48.7,46.5l61.8,59c14.8-4.8,31.2-1.2,42.3,9.4
		c11.1,10.6,14.9,26.4,9.8,40.6l59.6,56.8c14.4-4.7,31-1.7,42.5,9.3c16.1,15.3,16.1,40.2,0,55.5l0,0c-16.1,15.3-42.1,15.4-58.2,0
		c-11.8-11.2-15.3-28.1-9-42.8l-55.5-53v139.4c4,1.9,7.7,4.4,10.9,7.4c16.1,15.3,16.1,40.2,0,55.6l0,0c-16.1,15.3-42.2,15.3-58.2,0
		c-16.1-15.3-16.1-40.2,0-55.6c3.9-3.7,8.4-6.6,13.5-8.6V335.8c-5-2-9.6-4.9-13.5-8.6c-12.2-11.6-15.1-28.7-8.9-42.9l-60.9-58.1
		l-161,153.4c-13.5,12.9-13.5,33.8,0,46.7l0,0l234.6,223.8c13.5,12.9,35.4,12.9,48.9,0L664,427.3C677.5,414.4,677.5,393.5,664,380.6
		"/>
	<g>
		<path class="st2" d="M979.4,559.4c0-13.7-9.5-27-36.3-27h-51.7c-21.5,0-40-1.8-52.7-7.2v-3.1c-25.1-7.5-35.5-22.5-35.5-40.2
			c0-24.6,18.1-46.2,48.7-69.2l13,7.7c-7.3,9.3-10.9,16.9-10.9,28.6c0,11,7.6,17.8,28.6,17.8h57.6c75.1,0,101.3,27.9,101.3,68.6
			c0,47.9-50,87.6-144.7,87.6c-81.6,0-105.5-26.2-105.5-55c0-23,17.8-41.4,55.1-53.8l7.1,4.2c-10.5,14.4-14.5,22-14.5,37
			c0,28,20.9,39.8,65.7,39.8C954.3,595.2,979.4,579.7,979.4,559.4z M905.1,282.1c70.2,0,103,31.5,103,76.1c0,42.4-33.1,75-103.1,75
			c-70.3,0-103.1-31.8-103.1-75C801.9,314.5,835,282.1,905.1,282.1z M871.9,357.7c0,33.3,9.9,53.4,32.6,53.4
			c23.1,0,34.2-20.5,34.2-53.9c0-33-11.7-52.8-33.5-52.8C883.3,304.3,871.9,324.4,871.9,357.7z M1038.4,281.1l7.7,4.7v36.3h-70.7
			v-15.4L1038.4,281.1z"/>
		<path class="st2" d="M1091.7,516.5c1-21.2,1.5-69.6,1.5-98.7v-22.4c0-25.8-0.5-40.4-1.5-59.2l-30.4-4.2v-18.5l103.2-31.3l8.5,5
			l-1.5,68.2v62.4c0,29.1,0.5,77.5,1.5,98.7L1091.7,516.5L1091.7,516.5z M1196.7,494.6v21.9H1066v-21.9l45.7-9.4h37.2L1196.7,494.6z
			 M1089.7,209.9c0-21.9,18.6-37.4,41.8-37.4s41.8,15.5,41.8,37.4c0,21.8-18.6,37.4-41.8,37.4S1089.7,231.7,1089.7,209.9z"/>
		<path class="st2" d="M1347.8,485.2c9.1,0,17.1-3.6,26.7-10.4l12,11.3c-13,23.9-36.1,37.5-72.1,37.5c-44.7,0-70.8-19-70.8-65.3
			c0-16.4,0.5-29,0.5-47.3v-89.5h-31.8v-28l58.3-7.2l-28.2,18.9l31.1-81.9h50.3l-1.1,84.6v145.2
			C1322.7,475.2,1333.2,485.2,1347.8,485.2z M1374.4,289.3v32.2h-90.5v-32.2H1374.4z"/>
		<path class="st2" d="M1392.2,376h127.5v42.3h-127.5V376z"/>
		<path class="st2" d="M1637.2,394.9c0,54.1,27.3,83.9,68.7,83.9c23.6,0,41.3-10.4,55.5-26.1l17.2,14.5
			c-19,38.3-54.4,56.6-101.1,56.6c-67.1,0-122.7-41.1-122.7-120.1c0-76.8,59.5-121.4,133.1-121.4c52,0,88.5,30.9,92,68.4
			c-5.3,16.8-15.5,24.5-33.2,24.5c-19.5,0-35.5-11.4-37.8-44.5l-4.5-33.6l35.8,19.4c-15.3-6.8-28.2-10.1-43.7-10.1
			C1668.1,306.3,1637.2,331.3,1637.2,394.9z"/>
		<path class="st2" d="M1834.8,417.8v-27.5c0-25.8-0.5-35.3-1.5-54.1l-30.2-4.2v-18.5l97.2-31.3l8.5,5l4.5,57.7v72.8
			c0,29.1,0.5,77.5,1.5,98.7h-81.5C1834.3,495.3,1834.8,446.9,1834.8,417.8z M1807.1,494.6l47.1-9.4h51.8l47.1,9.4v21.9h-146V494.6z
			 M1876.9,355.7h37l-6.6,12.8c8.7-57.6,43-86.3,72.4-86.3c21.4,0,38.7,11.3,42.8,34.6c-1.1,24.5-15.3,38.4-35,38.4
			c-14.9,0-26.4-6.9-38.1-21.8l-14.4-17.9l19.9,6.8c-17.8,12.3-35.5,37.2-41.8,65.2l-36.1-3.4v-28.4H1876.9z"/>
		<path class="st2" d="M2074.7,317.2l-44.7-7.4v-20.5h140.4v20.3l-44.2,7.6H2074.7z M2031.6,592.4c4.2-20.6,21.3-30.3,40.7-30.3
			c13.2,0,29.1,3.3,42.4,21.8l15.3,21.4l-18.5,8l-15.1-8c23.4-13.5,43.5-39.1,55.1-70.7l25.9-71.1l64.5-174.3h32.3l-99.4,246.4
			c-24.3,60.2-46.5,92.2-92.3,92.2C2056.2,627.9,2033.3,612.5,2031.6,592.4z M2156.7,546l-114.4-256.7h84.9l66,174.4L2156.7,546z
			 M2240.8,316.8l-41.2-7v-20.5h93v20.5l-42.3,7H2240.8z"/>
		<path class="st2" d="M2337,390.6c0-25.9-0.5-35.7-1.5-54.5l-30.2-4.2v-18.5l96.5-31.3l8.1,4.4l3.2,36.6l2.3,7v147.7l-1.5,5.9v33.8
			c0,29.8,0.5,64,1.5,105.7h-80c1-41.7,1.5-75.6,1.5-105.5L2337,390.6L2337,390.6z M2446.6,600.9v22.2h-137.9v-22.2l47.1-9.4h47.9
			L2446.6,600.9z M2449.2,322.9c-26.1,0-48.2,26.1-64.3,41.8l-4.4-7.8c28.2-50.5,61-74.8,104.4-74.8c53.6,0,96.5,41.5,96.5,119.6
			c0,75.8-49.8,121.8-105.3,121.8c-44.3,0-70.2-24-92-72.6l4.4-8.5c20.3,25.9,34.7,41.3,59.2,41.3c29.3,0,50.2-25.4,50.2-80.9
			C2497.9,347.4,2478.2,322.9,2449.2,322.9z"/>
		<path class="st2" d="M2734.8,485.2c9.1,0,17.1-3.6,26.7-10.4l12,11.3c-13,23.9-36.1,37.5-72.1,37.5c-44.7,0-70.8-19-70.8-65.3
			c0-16.4,0.5-29,0.5-47.3v-89.5h-31.8v-28l58.3-7.2l-28.2,18.9l31.1-81.9h50.3l-1.1,84.6v145.2
			C2709.7,475.2,2720.2,485.2,2734.8,485.2z M2761.3,289.3v32.2h-90.5v-32.2H2761.3z"/>
	</g>
</g>
<g id="lock-bottom" class="st3">
</g>
<g id="lock-top">
	<g>
		<path class="st2" d="M894.9,768.5c2.9,3,6.1,1.5,9,1.5c14.5-0.1,29-0.3,43.5-0.4c14.4-0.1,28.8-0.2,43.2-0.4
			c14.5-0.1,29-0.3,43.5-0.4c12.8-0.1,25.6,0,38.4,0c4.3,0,6.5-2.4,6.4-6.2c-0.3-7.5-0.2-14.9-0.2-22.4c-0.1-14.4-0.3-28.8-0.3-43.2
			c-0.1-11.6,0-23.2,0-34.8c0-3.9-0.1-7.8-0.3-11.6c-0.1-2.8-1.6-4.4-4.5-4.4c-3.1,0-6.2,0.3-9.4,0.3c-14.4,0.1-28.8,0.3-43.2,0.4
			c-14.6,0.1-29.2,0.2-43.8,0.4c-14.3,0.1-28.6,0.3-42.9,0.4c-11.2,0.1-22.3,0.1-33.5,0c-6.3,0-7.5,1-7.5,7.5
			c0.1,19.6,0.4,39.3,0.5,58.9c0.1,16.5,0.2,33,0.3,49.5C894.2,765.2,894.7,766.8,894.9,768.5z"/>
		<path class="st4" d="M894.9,768.5c-0.3-1.6-0.7-3.2-0.7-4.9c-0.1-16.5-0.2-33-0.3-49.5c-0.2-19.6-0.4-39.3-0.5-58.9
			c0-6.5,1.2-7.5,7.5-7.5c11.2,0,22.3,0,33.5,0c14.3-0.1,28.6-0.2,42.9-0.4c14.6-0.1,29.2-0.2,43.8-0.4c14.4-0.1,28.8-0.2,43.2-0.4
			c3.1,0,6.2-0.3,9.4-0.3c2.9,0,4.4,1.6,4.5,4.4c0.2,3.9,0.3,7.8,0.3,11.6c0,11.6,0,23.2,0,34.8c0.1,14.4,0.2,28.8,0.3,43.2
			c0.1,7.5,0,14.9,0.2,22.4c0.1,3.8-2.1,6.3-6.4,6.2c-12.8-0.1-25.6-0.1-38.4,0c-14.5,0.1-29,0.2-43.5,0.4
			c-14.4,0.1-28.8,0.2-43.2,0.4c-14.5,0.1-29,0.2-43.5,0.4C901,770,897.9,771.5,894.9,768.5z M988.5,708.5
			c10.4-4.9,14.4-11,12.3-19.5c-1.5-6-7.6-11.4-15.6-11.8c-7-0.3-14.5,5.5-16,11.6c-1.9,7.8,1.6,14.9,11,19.2
			c-2.3,12.9-4.6,26-7,39.3c3.2-0.2,5.8-0.5,8.5-0.5c4.3,0,8.7,0.1,13,0.1c1.5,0,2.7-0.2,2.2-2.2c-1.4-5.7-2.9-11.4-4.3-17.2
			C991.3,721.2,989.9,714.8,988.5,708.5z"/>
		<path class="st2" d="M988.5,708.5c1.4,6.4,2.8,12.8,4.2,19.1c1.3,5.7,2.9,11.4,4.3,17.2c0.5,1.9-0.7,2.2-2.2,2.2
			c-4.3-0.1-8.7-0.2-13-0.1c-2.7,0-5.4,0.3-8.5,0.5c2.4-13.3,4.7-26.3,7-39.3c-9.4-4.3-12.9-11.4-11-19.2c1.5-6.1,9-11.9,16-11.6
			c8,0.3,14.1,5.7,15.6,11.8C1002.9,697.5,998.9,703.6,988.5,708.5z"/>
	</g>
	<g>
		<radialGradient id="SVGID_1_" cx="985.0418" cy="597.3996" r="62.3927" gradientUnits="userSpaceOnUse">
			<stop  offset="0.487" style="stop-color:#D6D6D6"/>
			<stop  offset="0.6422" style="stop-color:#B0B0B0"/>
			<stop  offset="0.9161" style="stop-color:#707070"/>
		</radialGradient>
		<path class="st5" d="M985.5,546.5c27.4-0.1,48.9,9.4,60.1,24c15.1,19.6,11.2,55,10.7,75.6c0,0,0-0.6,0,2c-8.9,0-18.1,0.2-27.8,0.2
			c0-6.6-0.1-14.9,0-21.6c0.4-13.7,0.5-12.7,0-20.6c0-14.4-14.6-35.5-43.2-35.8c-26.9,0.4-42.7,21.6-43.7,35.8
			c-0.5,6.9-0.5,13.9-0.5,20.9c-0.1,7,0,14-0.1,21.1c-9.5,0-18.6,0-27.9-0.1c0.8-26.7-4.8-54.5,15.7-77.6
			C941.6,556,963.8,546.4,985.5,546.5"/>
	</g>
	<polygon class="st2" points="946,619.5 912,622.6 913.1,594.8 949.1,589.7 	"/>
</g>
</svg>
